Coordinates
version=1
nRows=11
nColumns=40
inDegrees=yes

Units are S.I. units (second, meters, Newtons, ...)
If the header above contains a line with 'inDegrees', this indicates whether rotational values are in degrees (yes) or radians (no).

endheader
time	pelvis_tilt	pelvis_list	pelvis_rotation	pelvis_tx	pelvis_ty	pelvis_tz	hip_flexion_r	hip_adduction_r	hip_rotation_r	knee_angle_r	knee_angle_r_beta	ankle_angle_r	subtalar_angle_r	mtp_angle_r	hip_flexion_l	hip_adduction_l	hip_rotation_l	knee_angle_l	knee_angle_l_beta	ankle_angle_l	subtalar_angle_l	mtp_angle_l	lumbar_extension	lumbar_bending	lumbar_rotation	arm_flex_r	arm_add_r	arm_rot_r	elbow_flex_r	pro_sup_r	wrist_flex_r	wrist_dev_r	arm_flex_l	arm_add_l	arm_rot_l	elbow_flex_l	pro_sup_l	wrist_flex_l	wrist_dev_l
      4.15500000	    -17.20119104	      3.86549521	      5.06218543	     -0.32664202	      0.86409389	     -0.91710200	     51.17452114	    -20.29215973	      0.10404602	     68.24834643	      1.19115835	     21.56939359	      0.00000000	      0.00000000	     52.76163602	     -4.78758318	      2.10904825	     63.96984367	      1.11648439	     19.87818430	      0.00000000	      0.00000000	    -21.20007088	     -2.79557963	     -0.65462098	    -31.01109442	    -49.94838791	     23.43784458	    100.05284217	     88.07281913	      0.00000000	      0.00000000	     -5.87455062	    -59.43674496	     51.72793654	    100.40759439	     87.86406809	      0.00000000	      0.00000000
      4.16000000	    -16.61532815	      3.66797010	      5.11248678	     -0.32313377	      0.87255902	     -0.91718392	     49.39752539	    -20.30383727	     -0.93606556	     66.65680774	      1.16338076	     20.59304500	      0.00000000	      0.00000000	     51.20315155	     -4.97496507	      2.07609429	     62.48550027	      1.09057771	     18.97221246	      0.00000000	      0.00000000	    -20.80435284	     -2.52331532	     -0.55762281	    -33.00167126	    -49.39649931	     21.17528082	    100.85244145	     88.10402813	      0.00000000	      0.00000000	     -8.37523761	    -59.34290453	     48.99603067	    101.10734244	     87.87889474	      0.00000000	      0.00000000
      4.16500000	    -15.84980843	      3.52624340	      5.19804743	     -0.31932980	      0.88172790	     -0.91736002	     47.33665719	    -20.37567959	     -2.06660895	     64.95016654	      1.13359426	     19.41754554	      0.00000000	      0.00000000	     49.34835346	     -5.11498414	      1.99425058	     60.82676123	      1.06162726	     17.80136834	      0.00000000	      0.00000000	    -20.52317157	     -2.30987249	     -0.54767817	    -34.33447097	    -48.98765612	     19.80628419	    101.43599532	     88.10554187	      0.00000000	      0.00000000	    -10.26034406	    -59.38116123	     47.12659987	    101.80936112	     87.87058015	      0.00000000	      0.00000000
      4.17000000	    -15.21168430	      3.45203733	      5.22809020	     -0.31564203	      0.89096048	     -0.91754622	     45.41969992	    -20.41627141	     -3.04874906	     63.12236883	      1.10169317	     18.18427154	      0.00000000	      0.00000000	     47.56874223	     -5.22768537	      1.80074326	     59.05602049	      1.03072200	     16.62054323	      0.00000000	      0.00000000	    -20.13945623	     -2.19681541	     -0.55905479	    -35.67643198	    -48.61516950	     18.47625962	    101.98282332	     88.11948824	      0.00000000	      0.00000000	    -12.33313324	    -59.41555256	     45.05406718	    102.57906846	     87.86807160	      0.00000000	      0.00000000
      4.17500000	    -14.42895859	      3.40164328	      5.24572781	     -0.31170117	      0.90078189	     -0.91766671	     43.26450029	    -20.46367582	     -4.13810478	     61.17494516	      1.06770421	     16.77669299	      0.00000000	      0.00000000	     45.52106130	     -5.34424067	      1.59174925	     57.10487878	      0.99666815	     15.32250944	      0.00000000	      0.00000000	    -19.84782680	     -2.10226738	     -0.44625629	    -36.84355847	    -48.23686636	     17.43877479	    102.37823977	     88.10479210	      0.00000000	      0.00000000	    -13.59186861	    -59.55776934	     43.96616822	    103.31946692	     87.84737718	      0.00000000	      0.00000000
      4.18000000	    -13.69137999	      3.34858066	      5.25475616	     -0.30779227	      0.91071714	     -0.91776031	     41.11793096	    -20.45426525	     -5.21620535	     59.11612735	      1.03177106	     15.34935445	      0.00000000	      0.00000000	     43.49188420	     -5.43638635	      1.40651473	     55.06845314	      0.96112582	     14.07620890	      0.00000000	      0.00000000	    -19.54520656	     -2.01627512	     -0.28449167	    -38.30289534	    -47.71457575	     16.01082959	    102.85045572	     88.10292251	      0.00000000	      0.00000000	    -15.00453675	    -59.67119300	     42.58694367	    104.06924854	     87.83776144	      0.00000000	      0.00000000
      4.18500000	    -13.07564039	      3.30466127	      5.17922345	     -0.30383327	      0.92066825	     -0.91779490	     39.08974756	    -20.35072213	     -6.18093188	     56.93847547	      0.99376387	     13.91546109	      0.00000000	      0.00000000	     41.49626860	     -5.57762006	      1.14111480	     52.89044497	      0.92311241	     12.67251066	      0.00000000	      0.00000000	    -19.17938693	     -1.93905136	     -0.09724092	    -39.90793751	    -47.07842878	     14.25561677	    103.39861729	     88.14220308	      0.00000000	      0.00000000	    -17.24845169	    -59.55978499	     40.12820937	    104.92284866	     87.85646605	      0.00000000	      0.00000000
      4.19000000	    -12.37979957	      3.28553688	      5.08022176	     -0.29997193	      0.93118226	     -0.91747412	     36.92939023	    -20.17314393	     -7.06438118	     54.57902519	      0.95258369	     12.11152624	      0.00000000	      0.00000000	     39.34957847	     -5.70007904	      0.92187734	     50.52000094	      0.88174035	     10.92168516	      0.00000000	      0.00000000	    -18.81178476	     -1.97026756	      0.16922749	    -40.83811249	    -46.60394548	     13.52024338	    103.60755848	     88.11551515	      0.00000000	      0.00000000	    -18.20434455	    -59.80001790	     39.38289922	    105.63001175	     87.84241795	      0.00000000	      0.00000000
      4.19500000	    -11.61651599	      3.36873799	      4.84789819	     -0.29557128	      0.94208941	     -0.91733565	     34.65186897	    -20.03040985	     -7.92015147	     52.06980276	      0.90878950	     10.28684808	      0.00000000	      0.00000000	     36.93751415	     -5.78376396	      0.51646746	     47.94184025	      0.83674296	      9.21313969	      0.00000000	      0.00000000	    -18.52481409	     -2.08638382	      0.54831060	    -42.01940839	    -45.97513033	     12.39369299	    103.91437250	     88.09966751	      0.00000000	      0.00000000	    -19.28299927	    -59.79849884	     38.42457670	    106.28606778	     87.83785814	      0.00000000	      0.00000000
      4.20000000	    -10.88932442	      3.26462652	      4.68393792	     -0.29121925	      0.95290749	     -0.91702143	     32.31042155	    -19.75797436	     -9.10223732	     49.45951117	      0.86323132	      8.51255481	      0.00000000	      0.00000000	     34.59389096	     -6.02941508	      0.15372572	     45.32194928	      0.79101724	      7.64440816	      0.00000000	      0.00000000	    -18.33108618	     -1.99815670	     -0.21863580	    -41.82161031	    -46.34317007	     12.57285175	    104.22287332	     88.15277995	      0.00000000	      0.00000000	    -24.95892852	    -58.77518516	     32.19410327	    107.20471838	     87.89562673	      0.00000000	      0.00000000
      4.20500000	    -10.22058379	      3.12938920	      4.49886622	     -0.28692006	      0.96390625	     -0.91670744	     29.98337492	    -19.36221189	    -10.13186698	     46.64707505	      0.81414505	      6.38791900	      0.00000000	      0.00000000	     32.25246670	     -6.26972038	     -0.13700864	     42.54854132	      0.74261214	      5.70141994	      0.00000000	      0.00000000	    -17.95211164	     -1.89221871	      0.27812342	    -43.13132460	    -45.62766690	     11.30116681	    104.46924458	     88.14092201	      0.00000000	      0.00000000	    -25.85461685	    -58.73677939	     31.27528602	    107.74016353	     87.88825613	      0.00000000	      0.00000000
